<?xml version="1.0" encoding="utf-8"?>
<!-- Generator: Adobe Illustrator 15.0.2, SVG Export Plug-In . SVG Version: 6.00 Build 0)  -->
<!DOCTYPE svg PUBLIC "-//W3C//DTD SVG 1.1//EN" "http://www.w3.org/Graphics/SVG/1.1/DTD/svg11.dtd">
<svg version="1.1" id="Layer_1" xmlns="http://www.w3.org/2000/svg" xmlns:xlink="http://www.w3.org/1999/xlink" x="0px" y="0px"
	 width="120px" height="120px" viewBox="0 0 120 120" enable-background="new 0 0 120 120" xml:space="preserve">
<rect x="0" width="120" height="120"/>
<path fill="#FFFFFF" d="M41.837,0h36.326c12.047,0,18.069,0,24.554,2.05c7.08,2.577,12.656,8.153,15.233,15.233
	C120,23.767,120,29.791,120,41.837v36.326c0,12.047,0,18.069-2.05,24.554c-2.577,7.08-8.153,12.656-15.233,15.232
	C96.232,120,90.21,120,78.163,120H41.837c-12.047,0-18.07,0-24.554-2.051c-7.08-2.576-12.656-8.152-15.233-15.232
	C0,96.232,0,90.21,0,78.163V41.837c0-12.046,0-18.07,2.05-24.554c2.577-7.08,8.153-12.656,15.233-15.233C23.767,0,29.79,0,41.837,0
	L41.837,0"/>
</svg>
